<mxfile host="app.diagrams.net" modified="2021-02-08T17:52:38.075Z" agent="5.0 (Macintosh; Intel Mac OS X 10_15_6) AppleWebKit/605.1.15 (KHTML, like Gecko) Version/14.0.3 Safari/605.1.15" etag="r8ZDimUA1okUV7zet62j" version="14.3.0" type="github">
  <diagram id="VgeW_2b-S-3qkbL-wLmM" name="Page-1">
    <mxGraphModel dx="1113" dy="759" grid="1" gridSize="10" guides="1" tooltips="1" connect="1" arrows="1" fold="1" page="0" pageScale="1" pageWidth="827" pageHeight="1169" math="0" shadow="0">
      <root>
        <mxCell id="0" />
        <mxCell id="1" parent="0" />
        <mxCell id="d5_tCboOsH8uGrUhhkzx-5" style="edgeStyle=orthogonalEdgeStyle;rounded=0;orthogonalLoop=1;jettySize=auto;html=1;exitX=1;exitY=0.5;exitDx=0;exitDy=0;entryX=0;entryY=0.5;entryDx=0;entryDy=0;" edge="1" parent="1" source="d5_tCboOsH8uGrUhhkzx-1" target="d5_tCboOsH8uGrUhhkzx-4">
          <mxGeometry relative="1" as="geometry" />
        </mxCell>
        <mxCell id="d5_tCboOsH8uGrUhhkzx-66" style="edgeStyle=orthogonalEdgeStyle;curved=1;orthogonalLoop=1;jettySize=auto;html=1;exitX=0;exitY=0.5;exitDx=0;exitDy=0;entryX=0.5;entryY=0;entryDx=0;entryDy=0;" edge="1" parent="1" source="d5_tCboOsH8uGrUhhkzx-1" target="d5_tCboOsH8uGrUhhkzx-19">
          <mxGeometry relative="1" as="geometry" />
        </mxCell>
        <mxCell id="d5_tCboOsH8uGrUhhkzx-1" value="&lt;font style=&quot;font-size: 17px&quot;&gt;consist&lt;/font&gt;" style="rounded=0;whiteSpace=wrap;html=1;" vertex="1" parent="1">
          <mxGeometry x="350" y="20" width="120" height="60" as="geometry" />
        </mxCell>
        <mxCell id="d5_tCboOsH8uGrUhhkzx-4" value="Sp" style="ellipse;whiteSpace=wrap;html=1;" vertex="1" parent="1">
          <mxGeometry x="550" y="15" width="105" height="70" as="geometry" />
        </mxCell>
        <mxCell id="d5_tCboOsH8uGrUhhkzx-7" style="edgeStyle=orthogonalEdgeStyle;rounded=0;orthogonalLoop=1;jettySize=auto;html=1;exitX=1;exitY=0.5;exitDx=0;exitDy=0;entryX=0;entryY=0.5;entryDx=0;entryDy=0;" edge="1" parent="1" source="d5_tCboOsH8uGrUhhkzx-8" target="d5_tCboOsH8uGrUhhkzx-10">
          <mxGeometry relative="1" as="geometry" />
        </mxCell>
        <mxCell id="d5_tCboOsH8uGrUhhkzx-65" style="edgeStyle=orthogonalEdgeStyle;curved=1;orthogonalLoop=1;jettySize=auto;html=1;exitX=0;exitY=0.5;exitDx=0;exitDy=0;" edge="1" parent="1" source="d5_tCboOsH8uGrUhhkzx-8">
          <mxGeometry relative="1" as="geometry">
            <mxPoint x="200" y="290" as="targetPoint" />
          </mxGeometry>
        </mxCell>
        <mxCell id="d5_tCboOsH8uGrUhhkzx-8" value="&lt;font style=&quot;font-size: 17px&quot;&gt;consist&lt;/font&gt;" style="rounded=0;whiteSpace=wrap;html=1;" vertex="1" parent="1">
          <mxGeometry x="350" y="115" width="120" height="60" as="geometry" />
        </mxCell>
        <mxCell id="d5_tCboOsH8uGrUhhkzx-10" value="H" style="ellipse;whiteSpace=wrap;html=1;" vertex="1" parent="1">
          <mxGeometry x="550" y="110" width="105" height="70" as="geometry" />
        </mxCell>
        <mxCell id="d5_tCboOsH8uGrUhhkzx-12" style="edgeStyle=orthogonalEdgeStyle;rounded=0;orthogonalLoop=1;jettySize=auto;html=1;exitX=1;exitY=0.5;exitDx=0;exitDy=0;entryX=0;entryY=0.5;entryDx=0;entryDy=0;" edge="1" parent="1" source="d5_tCboOsH8uGrUhhkzx-13" target="d5_tCboOsH8uGrUhhkzx-15">
          <mxGeometry relative="1" as="geometry" />
        </mxCell>
        <mxCell id="d5_tCboOsH8uGrUhhkzx-64" style="edgeStyle=orthogonalEdgeStyle;curved=1;orthogonalLoop=1;jettySize=auto;html=1;exitX=0;exitY=0.5;exitDx=0;exitDy=0;" edge="1" parent="1" source="d5_tCboOsH8uGrUhhkzx-13" target="d5_tCboOsH8uGrUhhkzx-19">
          <mxGeometry relative="1" as="geometry" />
        </mxCell>
        <mxCell id="d5_tCboOsH8uGrUhhkzx-13" value="&lt;font style=&quot;font-size: 17px&quot;&gt;consist&lt;/font&gt;" style="rounded=0;whiteSpace=wrap;html=1;" vertex="1" parent="1">
          <mxGeometry x="350" y="205" width="120" height="60" as="geometry" />
        </mxCell>
        <mxCell id="d5_tCboOsH8uGrUhhkzx-15" value="P" style="ellipse;whiteSpace=wrap;html=1;" vertex="1" parent="1">
          <mxGeometry x="550" y="200" width="105" height="70" as="geometry" />
        </mxCell>
        <mxCell id="d5_tCboOsH8uGrUhhkzx-17" style="edgeStyle=orthogonalEdgeStyle;rounded=0;orthogonalLoop=1;jettySize=auto;html=1;exitX=1;exitY=0.5;exitDx=0;exitDy=0;entryX=0;entryY=0.5;entryDx=0;entryDy=0;" edge="1" parent="1" source="d5_tCboOsH8uGrUhhkzx-18" target="d5_tCboOsH8uGrUhhkzx-20">
          <mxGeometry relative="1" as="geometry" />
        </mxCell>
        <mxCell id="d5_tCboOsH8uGrUhhkzx-63" style="edgeStyle=orthogonalEdgeStyle;curved=1;orthogonalLoop=1;jettySize=auto;html=1;exitX=0;exitY=0.5;exitDx=0;exitDy=0;entryX=1;entryY=0.5;entryDx=0;entryDy=0;" edge="1" parent="1" source="d5_tCboOsH8uGrUhhkzx-18" target="d5_tCboOsH8uGrUhhkzx-19">
          <mxGeometry relative="1" as="geometry" />
        </mxCell>
        <mxCell id="d5_tCboOsH8uGrUhhkzx-18" value="&lt;font style=&quot;font-size: 17px&quot;&gt;consist&lt;/font&gt;" style="rounded=0;whiteSpace=wrap;html=1;" vertex="1" parent="1">
          <mxGeometry x="350" y="295" width="120" height="60" as="geometry" />
        </mxCell>
        <mxCell id="d5_tCboOsH8uGrUhhkzx-19" value="AFCS" style="ellipse;whiteSpace=wrap;html=1;" vertex="1" parent="1">
          <mxGeometry x="150" y="290" width="105" height="70" as="geometry" />
        </mxCell>
        <mxCell id="d5_tCboOsH8uGrUhhkzx-20" value="D" style="ellipse;whiteSpace=wrap;html=1;" vertex="1" parent="1">
          <mxGeometry x="550" y="290" width="105" height="70" as="geometry" />
        </mxCell>
        <mxCell id="d5_tCboOsH8uGrUhhkzx-22" style="edgeStyle=orthogonalEdgeStyle;rounded=0;orthogonalLoop=1;jettySize=auto;html=1;exitX=1;exitY=0.5;exitDx=0;exitDy=0;entryX=0;entryY=0.5;entryDx=0;entryDy=0;" edge="1" parent="1" source="d5_tCboOsH8uGrUhhkzx-23" target="d5_tCboOsH8uGrUhhkzx-25">
          <mxGeometry relative="1" as="geometry" />
        </mxCell>
        <mxCell id="d5_tCboOsH8uGrUhhkzx-67" style="edgeStyle=orthogonalEdgeStyle;curved=1;orthogonalLoop=1;jettySize=auto;html=1;exitX=0;exitY=0.5;exitDx=0;exitDy=0;entryX=0.5;entryY=1;entryDx=0;entryDy=0;" edge="1" parent="1" source="d5_tCboOsH8uGrUhhkzx-23" target="d5_tCboOsH8uGrUhhkzx-19">
          <mxGeometry relative="1" as="geometry" />
        </mxCell>
        <mxCell id="d5_tCboOsH8uGrUhhkzx-23" value="&lt;font style=&quot;font-size: 17px&quot;&gt;consist&lt;/font&gt;" style="rounded=0;whiteSpace=wrap;html=1;" vertex="1" parent="1">
          <mxGeometry x="350" y="385" width="120" height="60" as="geometry" />
        </mxCell>
        <mxCell id="d5_tCboOsH8uGrUhhkzx-25" value="O" style="ellipse;whiteSpace=wrap;html=1;" vertex="1" parent="1">
          <mxGeometry x="550" y="380" width="105" height="70" as="geometry" />
        </mxCell>
        <mxCell id="d5_tCboOsH8uGrUhhkzx-27" style="edgeStyle=orthogonalEdgeStyle;rounded=0;orthogonalLoop=1;jettySize=auto;html=1;exitX=1;exitY=0.5;exitDx=0;exitDy=0;entryX=0;entryY=0.5;entryDx=0;entryDy=0;" edge="1" parent="1" source="d5_tCboOsH8uGrUhhkzx-28" target="d5_tCboOsH8uGrUhhkzx-30">
          <mxGeometry relative="1" as="geometry" />
        </mxCell>
        <mxCell id="d5_tCboOsH8uGrUhhkzx-68" style="edgeStyle=orthogonalEdgeStyle;curved=1;orthogonalLoop=1;jettySize=auto;html=1;exitX=0;exitY=0.5;exitDx=0;exitDy=0;" edge="1" parent="1" source="d5_tCboOsH8uGrUhhkzx-28">
          <mxGeometry relative="1" as="geometry">
            <mxPoint x="200" y="360" as="targetPoint" />
          </mxGeometry>
        </mxCell>
        <mxCell id="d5_tCboOsH8uGrUhhkzx-28" value="&lt;font style=&quot;font-size: 17px&quot;&gt;consist&lt;/font&gt;" style="rounded=0;whiteSpace=wrap;html=1;" vertex="1" parent="1">
          <mxGeometry x="350" y="485" width="120" height="60" as="geometry" />
        </mxCell>
        <mxCell id="d5_tCboOsH8uGrUhhkzx-30" value="F" style="ellipse;whiteSpace=wrap;html=1;" vertex="1" parent="1">
          <mxGeometry x="550" y="480" width="105" height="70" as="geometry" />
        </mxCell>
        <mxCell id="d5_tCboOsH8uGrUhhkzx-31" style="edgeStyle=orthogonalEdgeStyle;rounded=0;orthogonalLoop=1;jettySize=auto;html=1;exitX=0;exitY=0.5;exitDx=0;exitDy=0;entryX=1;entryY=0.5;entryDx=0;entryDy=0;" edge="1" parent="1" source="d5_tCboOsH8uGrUhhkzx-33" target="d5_tCboOsH8uGrUhhkzx-34">
          <mxGeometry relative="1" as="geometry" />
        </mxCell>
        <mxCell id="d5_tCboOsH8uGrUhhkzx-81" style="edgeStyle=orthogonalEdgeStyle;curved=1;orthogonalLoop=1;jettySize=auto;html=1;exitX=1;exitY=0.5;exitDx=0;exitDy=0;fillColor=#b1ddf0;strokeColor=#10739e;strokeWidth=2;" edge="1" parent="1" source="d5_tCboOsH8uGrUhhkzx-33" target="d5_tCboOsH8uGrUhhkzx-72">
          <mxGeometry relative="1" as="geometry" />
        </mxCell>
        <mxCell id="d5_tCboOsH8uGrUhhkzx-83" style="orthogonalLoop=1;jettySize=auto;html=1;exitX=1;exitY=0.5;exitDx=0;exitDy=0;entryX=0;entryY=0.5;entryDx=0;entryDy=0;fillColor=#b1ddf0;strokeColor=#10739e;strokeWidth=2;" edge="1" parent="1" source="d5_tCboOsH8uGrUhhkzx-33" target="d5_tCboOsH8uGrUhhkzx-73">
          <mxGeometry relative="1" as="geometry" />
        </mxCell>
        <mxCell id="d5_tCboOsH8uGrUhhkzx-33" value="&lt;font style=&quot;font-size: 17px&quot;&gt;takes&lt;/font&gt;" style="rounded=0;whiteSpace=wrap;html=1;" vertex="1" parent="1">
          <mxGeometry x="350" y="585" width="120" height="60" as="geometry" />
        </mxCell>
        <mxCell id="d5_tCboOsH8uGrUhhkzx-34" value="C" style="ellipse;whiteSpace=wrap;html=1;" vertex="1" parent="1">
          <mxGeometry x="150" y="580" width="105" height="70" as="geometry" />
        </mxCell>
        <mxCell id="d5_tCboOsH8uGrUhhkzx-39" value="of sensors" style="text;html=1;align=center;verticalAlign=middle;resizable=0;points=[];autosize=1;" vertex="1" parent="1">
          <mxGeometry x="480" y="20" width="70" height="20" as="geometry" />
        </mxCell>
        <mxCell id="d5_tCboOsH8uGrUhhkzx-46" value="of sensors" style="text;html=1;align=center;verticalAlign=middle;resizable=0;points=[];autosize=1;" vertex="1" parent="1">
          <mxGeometry x="480" y="110" width="70" height="20" as="geometry" />
        </mxCell>
        <mxCell id="d5_tCboOsH8uGrUhhkzx-47" value="of sensors" style="text;html=1;align=center;verticalAlign=middle;resizable=0;points=[];autosize=1;" vertex="1" parent="1">
          <mxGeometry x="480" y="205" width="70" height="20" as="geometry" />
        </mxCell>
        <mxCell id="d5_tCboOsH8uGrUhhkzx-48" value="of sensors" style="text;html=1;align=center;verticalAlign=middle;resizable=0;points=[];autosize=1;" vertex="1" parent="1">
          <mxGeometry x="480" y="295" width="70" height="20" as="geometry" />
        </mxCell>
        <mxCell id="d5_tCboOsH8uGrUhhkzx-49" value="of sensors" style="text;html=1;align=center;verticalAlign=middle;resizable=0;points=[];autosize=1;" vertex="1" parent="1">
          <mxGeometry x="480" y="385" width="70" height="20" as="geometry" />
        </mxCell>
        <mxCell id="d5_tCboOsH8uGrUhhkzx-50" value="of sensors" style="text;html=1;align=center;verticalAlign=middle;resizable=0;points=[];autosize=1;" vertex="1" parent="1">
          <mxGeometry x="480" y="480" width="70" height="20" as="geometry" />
        </mxCell>
        <mxCell id="d5_tCboOsH8uGrUhhkzx-55" value="what" style="text;html=1;align=center;verticalAlign=middle;resizable=0;points=[];autosize=1;" vertex="1" parent="1">
          <mxGeometry x="280" y="20" width="40" height="20" as="geometry" />
        </mxCell>
        <mxCell id="d5_tCboOsH8uGrUhhkzx-56" value="what" style="text;html=1;align=center;verticalAlign=middle;resizable=0;points=[];autosize=1;" vertex="1" parent="1">
          <mxGeometry x="280" y="115" width="40" height="20" as="geometry" />
        </mxCell>
        <mxCell id="d5_tCboOsH8uGrUhhkzx-57" value="what" style="text;html=1;align=center;verticalAlign=middle;resizable=0;points=[];autosize=1;" vertex="1" parent="1">
          <mxGeometry x="280" y="210" width="40" height="20" as="geometry" />
        </mxCell>
        <mxCell id="d5_tCboOsH8uGrUhhkzx-58" value="what" style="text;html=1;align=center;verticalAlign=middle;resizable=0;points=[];autosize=1;" vertex="1" parent="1">
          <mxGeometry x="280" y="295" width="40" height="20" as="geometry" />
        </mxCell>
        <mxCell id="d5_tCboOsH8uGrUhhkzx-59" value="what" style="text;html=1;align=center;verticalAlign=middle;resizable=0;points=[];autosize=1;" vertex="1" parent="1">
          <mxGeometry x="280" y="380" width="40" height="20" as="geometry" />
        </mxCell>
        <mxCell id="d5_tCboOsH8uGrUhhkzx-60" value="what" style="text;html=1;align=center;verticalAlign=middle;resizable=0;points=[];autosize=1;" vertex="1" parent="1">
          <mxGeometry x="280" y="480" width="40" height="20" as="geometry" />
        </mxCell>
        <mxCell id="d5_tCboOsH8uGrUhhkzx-61" value="who" style="text;html=1;align=center;verticalAlign=middle;resizable=0;points=[];autosize=1;" vertex="1" parent="1">
          <mxGeometry x="280" y="580" width="40" height="20" as="geometry" />
        </mxCell>
        <mxCell id="d5_tCboOsH8uGrUhhkzx-71" style="edgeStyle=orthogonalEdgeStyle;curved=1;orthogonalLoop=1;jettySize=auto;html=1;exitX=0;exitY=0.5;exitDx=0;exitDy=0;" edge="1" parent="1" source="d5_tCboOsH8uGrUhhkzx-70" target="d5_tCboOsH8uGrUhhkzx-34">
          <mxGeometry relative="1" as="geometry" />
        </mxCell>
        <mxCell id="d5_tCboOsH8uGrUhhkzx-78" style="orthogonalLoop=1;jettySize=auto;html=1;exitX=1;exitY=0.5;exitDx=0;exitDy=0;entryX=0;entryY=0.5;entryDx=0;entryDy=0;fillColor=#60a917;strokeColor=#2D7600;strokeWidth=2;rounded=0;" edge="1" parent="1" source="d5_tCboOsH8uGrUhhkzx-70" target="d5_tCboOsH8uGrUhhkzx-72">
          <mxGeometry relative="1" as="geometry" />
        </mxCell>
        <mxCell id="d5_tCboOsH8uGrUhhkzx-79" style="edgeStyle=orthogonalEdgeStyle;curved=1;orthogonalLoop=1;jettySize=auto;html=1;exitX=1;exitY=0.5;exitDx=0;exitDy=0;entryX=0;entryY=0.5;entryDx=0;entryDy=0;fillColor=#60a917;strokeColor=#2D7600;strokeWidth=2;" edge="1" parent="1" source="d5_tCboOsH8uGrUhhkzx-70" target="d5_tCboOsH8uGrUhhkzx-73">
          <mxGeometry relative="1" as="geometry" />
        </mxCell>
        <mxCell id="d5_tCboOsH8uGrUhhkzx-70" value="&lt;span style=&quot;font-size: 17px&quot;&gt;comparing&lt;/span&gt;" style="rounded=0;whiteSpace=wrap;html=1;" vertex="1" parent="1">
          <mxGeometry x="350" y="770" width="120" height="60" as="geometry" />
        </mxCell>
        <mxCell id="d5_tCboOsH8uGrUhhkzx-72" value="D" style="ellipse;whiteSpace=wrap;html=1;" vertex="1" parent="1">
          <mxGeometry x="645" y="580" width="105" height="70" as="geometry" />
        </mxCell>
        <mxCell id="d5_tCboOsH8uGrUhhkzx-73" value="S" style="ellipse;whiteSpace=wrap;html=1;" vertex="1" parent="1">
          <mxGeometry x="590" y="765" width="105" height="70" as="geometry" />
        </mxCell>
        <mxCell id="d5_tCboOsH8uGrUhhkzx-80" value="who" style="text;html=1;align=center;verticalAlign=middle;resizable=0;points=[];autosize=1;" vertex="1" parent="1">
          <mxGeometry x="280" y="760" width="40" height="20" as="geometry" />
        </mxCell>
        <mxCell id="d5_tCboOsH8uGrUhhkzx-82" value="what" style="text;html=1;align=center;verticalAlign=middle;resizable=0;points=[];autosize=1;" vertex="1" parent="1">
          <mxGeometry x="605" y="585" width="40" height="20" as="geometry" />
        </mxCell>
        <mxCell id="d5_tCboOsH8uGrUhhkzx-84" value="from" style="text;html=1;align=center;verticalAlign=middle;resizable=0;points=[];autosize=1;" vertex="1" parent="1">
          <mxGeometry x="520" y="800" width="40" height="20" as="geometry" />
        </mxCell>
        <mxCell id="d5_tCboOsH8uGrUhhkzx-86" style="edgeStyle=orthogonalEdgeStyle;curved=1;orthogonalLoop=1;jettySize=auto;html=1;exitX=0;exitY=0.5;exitDx=0;exitDy=0;strokeWidth=1;" edge="1" parent="1" source="d5_tCboOsH8uGrUhhkzx-85" target="d5_tCboOsH8uGrUhhkzx-34">
          <mxGeometry relative="1" as="geometry" />
        </mxCell>
        <mxCell id="d5_tCboOsH8uGrUhhkzx-88" style="edgeStyle=orthogonalEdgeStyle;curved=1;orthogonalLoop=1;jettySize=auto;html=1;exitX=1;exitY=0.5;exitDx=0;exitDy=0;entryX=0;entryY=0.5;entryDx=0;entryDy=0;strokeWidth=1;" edge="1" parent="1" source="d5_tCboOsH8uGrUhhkzx-85" target="d5_tCboOsH8uGrUhhkzx-87">
          <mxGeometry relative="1" as="geometry" />
        </mxCell>
        <mxCell id="d5_tCboOsH8uGrUhhkzx-127" style="edgeStyle=none;rounded=0;orthogonalLoop=1;jettySize=auto;html=1;exitX=1;exitY=0.5;exitDx=0;exitDy=0;entryX=0;entryY=0.5;entryDx=0;entryDy=0;strokeWidth=1;" edge="1" parent="1" source="d5_tCboOsH8uGrUhhkzx-85" target="d5_tCboOsH8uGrUhhkzx-91">
          <mxGeometry relative="1" as="geometry" />
        </mxCell>
        <mxCell id="d5_tCboOsH8uGrUhhkzx-85" value="&lt;span style=&quot;font-size: 17px&quot;&gt;provides&lt;br&gt;&lt;/span&gt;" style="rounded=0;whiteSpace=wrap;html=1;" vertex="1" parent="1">
          <mxGeometry x="350" y="890" width="120" height="60" as="geometry" />
        </mxCell>
        <mxCell id="d5_tCboOsH8uGrUhhkzx-87" value="CS" style="ellipse;whiteSpace=wrap;html=1;" vertex="1" parent="1">
          <mxGeometry x="570" y="885" width="105" height="70" as="geometry" />
        </mxCell>
        <mxCell id="d5_tCboOsH8uGrUhhkzx-89" value="who" style="text;html=1;align=center;verticalAlign=middle;resizable=0;points=[];autosize=1;" vertex="1" parent="1">
          <mxGeometry x="290" y="885" width="40" height="20" as="geometry" />
        </mxCell>
        <mxCell id="d5_tCboOsH8uGrUhhkzx-90" value="what" style="text;html=1;align=center;verticalAlign=middle;resizable=0;points=[];autosize=1;" vertex="1" parent="1">
          <mxGeometry x="495" y="900" width="40" height="20" as="geometry" />
        </mxCell>
        <mxCell id="d5_tCboOsH8uGrUhhkzx-91" value="E" style="ellipse;whiteSpace=wrap;html=1;" vertex="1" parent="1">
          <mxGeometry x="570" y="985" width="105" height="70" as="geometry" />
        </mxCell>
        <mxCell id="d5_tCboOsH8uGrUhhkzx-92" value="F" style="ellipse;whiteSpace=wrap;html=1;" vertex="1" parent="1">
          <mxGeometry x="570" y="1085" width="105" height="70" as="geometry" />
        </mxCell>
        <mxCell id="d5_tCboOsH8uGrUhhkzx-93" value="R" style="ellipse;whiteSpace=wrap;html=1;" vertex="1" parent="1">
          <mxGeometry x="570" y="1170" width="105" height="70" as="geometry" />
        </mxCell>
        <mxCell id="d5_tCboOsH8uGrUhhkzx-97" value="to what" style="text;html=1;align=center;verticalAlign=middle;resizable=0;points=[];autosize=1;" vertex="1" parent="1">
          <mxGeometry x="550" y="970" width="50" height="20" as="geometry" />
        </mxCell>
        <mxCell id="d5_tCboOsH8uGrUhhkzx-98" value="to what" style="text;html=1;align=center;verticalAlign=middle;resizable=0;points=[];autosize=1;" vertex="1" parent="1">
          <mxGeometry x="540" y="1070" width="50" height="20" as="geometry" />
        </mxCell>
        <mxCell id="d5_tCboOsH8uGrUhhkzx-99" value="to what" style="text;html=1;align=center;verticalAlign=middle;resizable=0;points=[];autosize=1;" vertex="1" parent="1">
          <mxGeometry x="535" y="1155" width="50" height="20" as="geometry" />
        </mxCell>
        <mxCell id="d5_tCboOsH8uGrUhhkzx-101" style="edgeStyle=orthogonalEdgeStyle;curved=1;orthogonalLoop=1;jettySize=auto;html=1;exitX=0;exitY=0.5;exitDx=0;exitDy=0;entryX=1;entryY=0.5;entryDx=0;entryDy=0;strokeWidth=1;" edge="1" parent="1" source="d5_tCboOsH8uGrUhhkzx-100" target="d5_tCboOsH8uGrUhhkzx-73">
          <mxGeometry relative="1" as="geometry" />
        </mxCell>
        <mxCell id="d5_tCboOsH8uGrUhhkzx-103" style="edgeStyle=orthogonalEdgeStyle;curved=1;orthogonalLoop=1;jettySize=auto;html=1;exitX=0.5;exitY=1;exitDx=0;exitDy=0;entryX=0.5;entryY=0;entryDx=0;entryDy=0;strokeWidth=1;" edge="1" parent="1" source="d5_tCboOsH8uGrUhhkzx-100" target="d5_tCboOsH8uGrUhhkzx-102">
          <mxGeometry relative="1" as="geometry" />
        </mxCell>
        <mxCell id="d5_tCboOsH8uGrUhhkzx-105" style="edgeStyle=orthogonalEdgeStyle;curved=1;orthogonalLoop=1;jettySize=auto;html=1;exitX=1;exitY=0.5;exitDx=0;exitDy=0;entryX=0;entryY=0.5;entryDx=0;entryDy=0;strokeWidth=1;" edge="1" parent="1" source="d5_tCboOsH8uGrUhhkzx-100" target="d5_tCboOsH8uGrUhhkzx-104">
          <mxGeometry relative="1" as="geometry" />
        </mxCell>
        <mxCell id="d5_tCboOsH8uGrUhhkzx-100" value="&lt;span style=&quot;font-size: 17px&quot;&gt;makes possible&lt;/span&gt;" style="rounded=0;whiteSpace=wrap;html=1;" vertex="1" parent="1">
          <mxGeometry x="780" y="770" width="120" height="60" as="geometry" />
        </mxCell>
        <mxCell id="d5_tCboOsH8uGrUhhkzx-102" value="AM" style="ellipse;whiteSpace=wrap;html=1;" vertex="1" parent="1">
          <mxGeometry x="787.5" y="900" width="105" height="70" as="geometry" />
        </mxCell>
        <mxCell id="d5_tCboOsH8uGrUhhkzx-104" value="RP" style="ellipse;whiteSpace=wrap;html=1;" vertex="1" parent="1">
          <mxGeometry x="980" y="765" width="105" height="70" as="geometry" />
        </mxCell>
        <mxCell id="d5_tCboOsH8uGrUhhkzx-106" value="what" style="text;html=1;align=center;verticalAlign=middle;resizable=0;points=[];autosize=1;" vertex="1" parent="1">
          <mxGeometry x="710" y="770" width="40" height="20" as="geometry" />
        </mxCell>
        <mxCell id="d5_tCboOsH8uGrUhhkzx-107" value="to what" style="text;html=1;align=center;verticalAlign=middle;resizable=0;points=[];autosize=1;" vertex="1" parent="1">
          <mxGeometry x="915" y="760" width="50" height="20" as="geometry" />
        </mxCell>
        <mxCell id="d5_tCboOsH8uGrUhhkzx-108" value="where" style="text;html=1;align=center;verticalAlign=middle;resizable=0;points=[];autosize=1;" vertex="1" parent="1">
          <mxGeometry x="842.5" y="865" width="50" height="20" as="geometry" />
        </mxCell>
        <mxCell id="d5_tCboOsH8uGrUhhkzx-111" style="edgeStyle=orthogonalEdgeStyle;orthogonalLoop=1;jettySize=auto;html=1;exitX=0;exitY=0.5;exitDx=0;exitDy=0;strokeWidth=1;curved=1;" edge="1" parent="1" source="d5_tCboOsH8uGrUhhkzx-109">
          <mxGeometry relative="1" as="geometry">
            <mxPoint x="200" y="659.9999999999998" as="targetPoint" />
          </mxGeometry>
        </mxCell>
        <mxCell id="d5_tCboOsH8uGrUhhkzx-128" style="edgeStyle=none;rounded=0;orthogonalLoop=1;jettySize=auto;html=1;exitX=1;exitY=0.5;exitDx=0;exitDy=0;entryX=0;entryY=0.5;entryDx=0;entryDy=0;strokeWidth=1;" edge="1" parent="1" source="d5_tCboOsH8uGrUhhkzx-109" target="d5_tCboOsH8uGrUhhkzx-87">
          <mxGeometry relative="1" as="geometry" />
        </mxCell>
        <mxCell id="d5_tCboOsH8uGrUhhkzx-129" style="edgeStyle=none;rounded=0;orthogonalLoop=1;jettySize=auto;html=1;exitX=1;exitY=0.5;exitDx=0;exitDy=0;entryX=0;entryY=0.5;entryDx=0;entryDy=0;strokeWidth=1;" edge="1" parent="1" source="d5_tCboOsH8uGrUhhkzx-109" target="d5_tCboOsH8uGrUhhkzx-92">
          <mxGeometry relative="1" as="geometry" />
        </mxCell>
        <mxCell id="d5_tCboOsH8uGrUhhkzx-109" value="&lt;span style=&quot;font-size: 17px&quot;&gt;provides&lt;br&gt;&lt;/span&gt;" style="rounded=0;whiteSpace=wrap;html=1;" vertex="1" parent="1">
          <mxGeometry x="350" y="990" width="120" height="60" as="geometry" />
        </mxCell>
        <mxCell id="d5_tCboOsH8uGrUhhkzx-112" style="edgeStyle=orthogonalEdgeStyle;curved=1;orthogonalLoop=1;jettySize=auto;html=1;exitX=0;exitY=0.5;exitDx=0;exitDy=0;entryX=0.5;entryY=1;entryDx=0;entryDy=0;strokeWidth=1;" edge="1" parent="1" source="d5_tCboOsH8uGrUhhkzx-110" target="d5_tCboOsH8uGrUhhkzx-34">
          <mxGeometry relative="1" as="geometry" />
        </mxCell>
        <mxCell id="d5_tCboOsH8uGrUhhkzx-130" style="edgeStyle=none;rounded=0;orthogonalLoop=1;jettySize=auto;html=1;exitX=1;exitY=0.5;exitDx=0;exitDy=0;entryX=0;entryY=0.5;entryDx=0;entryDy=0;strokeWidth=1;" edge="1" parent="1" source="d5_tCboOsH8uGrUhhkzx-110" target="d5_tCboOsH8uGrUhhkzx-87">
          <mxGeometry relative="1" as="geometry" />
        </mxCell>
        <mxCell id="d5_tCboOsH8uGrUhhkzx-131" style="edgeStyle=none;rounded=0;orthogonalLoop=1;jettySize=auto;html=1;exitX=1;exitY=0.5;exitDx=0;exitDy=0;entryX=0;entryY=0.5;entryDx=0;entryDy=0;strokeWidth=1;" edge="1" parent="1" source="d5_tCboOsH8uGrUhhkzx-110" target="d5_tCboOsH8uGrUhhkzx-93">
          <mxGeometry relative="1" as="geometry" />
        </mxCell>
        <mxCell id="d5_tCboOsH8uGrUhhkzx-110" value="&lt;span style=&quot;font-size: 17px&quot;&gt;provides&lt;br&gt;&lt;/span&gt;" style="rounded=0;whiteSpace=wrap;html=1;" vertex="1" parent="1">
          <mxGeometry x="350" y="1090" width="120" height="60" as="geometry" />
        </mxCell>
        <mxCell id="d5_tCboOsH8uGrUhhkzx-113" value="who" style="text;html=1;align=center;verticalAlign=middle;resizable=0;points=[];autosize=1;" vertex="1" parent="1">
          <mxGeometry x="290" y="970" width="40" height="20" as="geometry" />
        </mxCell>
        <mxCell id="d5_tCboOsH8uGrUhhkzx-114" value="who" style="text;html=1;align=center;verticalAlign=middle;resizable=0;points=[];autosize=1;" vertex="1" parent="1">
          <mxGeometry x="290" y="1080" width="40" height="20" as="geometry" />
        </mxCell>
        <mxCell id="d5_tCboOsH8uGrUhhkzx-132" value="what" style="text;html=1;align=center;verticalAlign=middle;resizable=0;points=[];autosize=1;" vertex="1" parent="1">
          <mxGeometry x="470" y="745" width="40" height="20" as="geometry" />
        </mxCell>
        <mxCell id="d5_tCboOsH8uGrUhhkzx-133" value="from" style="text;html=1;align=center;verticalAlign=middle;resizable=0;points=[];autosize=1;" vertex="1" parent="1">
          <mxGeometry x="495" y="640" width="40" height="20" as="geometry" />
        </mxCell>
      </root>
    </mxGraphModel>
  </diagram>
</mxfile>
